<svg width="693" height="761" viewBox="0 0 693 761" fill="none" xmlns="http://www.w3.org/2000/svg">
<g clip-path="url(#clip0_1805_455)">
<path d="M635.873 646.705H48.9775C48.9148 646.705 48.8527 646.693 48.7948 646.668C48.7368 646.643 48.6842 646.607 48.6398 646.561C48.5955 646.515 48.5603 646.461 48.5363 646.401C48.5124 646.341 48.5 646.277 48.5 646.212C48.5 646.147 48.5124 646.083 48.5363 646.023C48.5603 645.963 48.5955 645.908 48.6398 645.862C48.6842 645.817 48.7368 645.78 48.7948 645.755C48.8527 645.731 48.9148 645.718 48.9775 645.718H635.871C635.998 645.718 636.119 645.77 636.209 645.862C636.299 645.955 636.349 646.081 636.349 646.212C636.349 646.343 636.299 646.468 636.209 646.561C636.119 646.653 635.998 646.705 635.871 646.705H635.873Z" fill="#292A2E"/>
<g opacity="0.65">
<path d="M635.873 646.705H48.9775C48.9148 646.705 48.8527 646.693 48.7948 646.668C48.7368 646.643 48.6842 646.607 48.6398 646.561C48.5955 646.515 48.5603 646.461 48.5363 646.401C48.5124 646.341 48.5 646.277 48.5 646.212C48.5 646.147 48.5124 646.083 48.5363 646.023C48.5603 645.963 48.5955 645.908 48.6398 645.862C48.6842 645.817 48.7368 645.78 48.7948 645.755C48.8527 645.731 48.9148 645.718 48.9775 645.718H635.871C635.998 645.718 636.119 645.77 636.209 645.862C636.299 645.955 636.349 646.081 636.349 646.212C636.349 646.343 636.299 646.468 636.209 646.561C636.119 646.653 635.998 646.705 635.871 646.705H635.873Z" fill="#292A2E"/>
</g>
<path d="M89.8375 645.837L88.4978 645.57L109.436 430.363L110.775 430.63L89.8375 645.837Z" fill="#494949"/>
<path d="M167.8 645.837L166.461 645.57L187.398 430.363L188.737 430.63L167.8 645.837Z" fill="#494949"/>
<path d="M340.132 645.837L341.472 645.57L320.534 430.363L319.195 430.63L340.132 645.837Z" fill="#494949"/>
<path d="M262.17 645.837L263.509 645.57L242.572 430.363L241.232 430.63L262.17 645.837Z" fill="#494949"/>
<path d="M234.402 335.651L233.05 335.837L245.281 430.592L246.634 430.405L234.402 335.651Z" fill="#494949"/>
<path d="M94.009 335.649L92.6568 335.836L104.888 430.591L106.24 430.404L94.009 335.649Z" fill="#494949"/>
<path d="M246.517 423.558H109.196C105.491 423.558 102.488 426.664 102.488 430.497V430.497C102.488 434.329 105.491 437.436 109.196 437.436H246.517C250.222 437.436 253.225 434.329 253.225 430.497V430.497C253.225 426.664 250.222 423.558 246.517 423.558Z" fill="#292A2E"/>
<path opacity="0.8" d="M246.517 423.558H109.196C105.491 423.558 102.488 426.664 102.488 430.497V430.497C102.488 434.329 105.491 437.436 109.196 437.436H246.517C250.222 437.436 253.225 434.329 253.225 430.497V430.497C253.225 426.664 250.222 423.558 246.517 423.558Z" fill="white"/>
<path d="M246.514 438.142H109.196C107.248 438.122 105.387 437.308 104.016 435.877C102.645 434.445 101.876 432.512 101.876 430.497C101.876 428.482 102.645 426.549 104.016 425.117C105.387 423.685 107.248 422.872 109.196 422.852H246.514C248.462 422.872 250.324 423.685 251.695 425.117C253.065 426.549 253.834 428.482 253.834 430.497C253.834 432.512 253.065 434.445 251.695 435.877C250.324 437.308 248.462 438.122 246.514 438.142V438.142ZM109.196 424.263C107.609 424.281 106.092 424.945 104.976 426.112C103.859 427.279 103.233 428.855 103.233 430.497C103.233 432.139 103.859 433.714 104.976 434.881C106.092 436.049 107.609 436.713 109.196 436.731H246.514C248.101 436.713 249.618 436.049 250.734 434.881C251.851 433.714 252.477 432.139 252.477 430.497C252.477 428.855 251.851 427.279 250.734 426.112C249.618 424.945 248.101 424.281 246.514 424.263H109.196Z" fill="#292A2E"/>
<path d="M321.886 423.558H184.565C180.86 423.558 177.857 426.664 177.857 430.497V430.497C177.857 434.329 180.86 437.436 184.565 437.436H321.886C325.591 437.436 328.594 434.329 328.594 430.497V430.497C328.594 426.664 325.591 423.558 321.886 423.558Z" fill="white"/>
<path d="M321.886 438.142H184.566C183.589 438.151 182.62 437.961 181.715 437.581C180.81 437.201 179.987 436.639 179.293 435.929C178.6 435.218 178.049 434.372 177.673 433.439C177.297 432.507 177.103 431.507 177.103 430.497C177.103 429.487 177.297 428.487 177.673 427.554C178.049 426.622 178.6 425.776 179.293 425.065C179.987 424.354 180.81 423.793 181.715 423.413C182.62 423.033 183.589 422.842 184.566 422.852H321.886C322.863 422.842 323.832 423.033 324.737 423.413C325.642 423.793 326.465 424.354 327.159 425.065C327.852 425.776 328.403 426.622 328.779 427.554C329.155 428.487 329.349 429.487 329.349 430.497C329.349 431.507 329.155 432.507 328.779 433.439C328.403 434.372 327.852 435.218 327.159 435.929C326.465 436.639 325.642 437.201 324.737 437.581C323.832 437.961 322.863 438.151 321.886 438.142V438.142ZM184.566 424.263C183.769 424.254 182.978 424.409 182.24 424.719C181.501 425.028 180.829 425.486 180.262 426.065C179.696 426.645 179.246 427.335 178.939 428.096C178.633 428.857 178.474 429.673 178.474 430.497C178.474 431.321 178.633 432.137 178.939 432.898C179.246 433.658 179.696 434.349 180.262 434.928C180.829 435.508 181.501 435.966 182.24 436.275C182.978 436.585 183.769 436.739 184.566 436.731H321.886C322.683 436.739 323.474 436.585 324.212 436.275C324.951 435.966 325.623 435.508 326.19 434.928C326.756 434.349 327.206 433.658 327.513 432.898C327.819 432.137 327.978 431.321 327.978 430.497C327.978 429.673 327.819 428.857 327.513 428.096C327.206 427.335 326.756 426.645 326.19 426.065C325.623 425.486 324.951 425.028 324.212 424.719C323.474 424.409 322.683 424.254 321.886 424.263H184.566Z" fill="#292A2E"/>
<path d="M226.88 335.742H93.7016C91.5242 335.742 89.4213 334.922 87.7853 333.436C86.1494 331.95 85.0922 329.899 84.811 327.666L76.0017 257.692C75.837 256.384 75.9439 255.055 76.3153 253.793C76.6868 252.531 77.3142 251.366 78.1557 250.375C78.9972 249.384 80.0335 248.59 81.1953 248.046C82.3571 247.502 83.6177 247.221 84.8929 247.221H218.071C220.248 247.221 222.351 248.04 223.987 249.526C225.623 251.012 226.68 253.064 226.961 255.297L235.77 325.271C235.935 326.579 235.828 327.908 235.457 329.169C235.085 330.431 234.458 331.596 233.616 332.587C232.775 333.579 231.739 334.373 230.577 334.916C229.415 335.46 228.155 335.742 226.88 335.742Z" fill="#292A2E"/>
<path opacity="0.8" d="M226.88 335.742H93.7016C91.5242 335.742 89.4213 334.922 87.7853 333.436C86.1494 331.95 85.0922 329.899 84.811 327.666L76.0017 257.692C75.837 256.384 75.9439 255.055 76.3153 253.793C76.6868 252.531 77.3142 251.366 78.1557 250.375C78.9972 249.384 80.0335 248.59 81.1953 248.046C82.3571 247.502 83.6177 247.221 84.8929 247.221H218.071C220.248 247.221 222.351 248.04 223.987 249.526C225.623 251.012 226.68 253.064 226.961 255.297L235.77 325.271C235.935 326.579 235.828 327.908 235.457 329.169C235.085 330.431 234.458 331.596 233.616 332.587C232.775 333.579 231.739 334.373 230.577 334.916C229.415 335.46 228.155 335.742 226.88 335.742Z" fill="white"/>
<path d="M226.88 336.447H93.7015C91.3602 336.442 89.1003 335.558 87.3409 333.961C85.5816 332.363 84.4423 330.159 84.1344 327.758L75.325 257.784C75.1478 256.377 75.2628 254.947 75.6625 253.589C76.0622 252.231 76.7373 250.977 77.6428 249.911C78.5483 248.844 79.6633 247.99 80.9134 247.405C82.1635 246.819 83.52 246.517 84.8922 246.517H218.07C220.412 246.522 222.672 247.406 224.432 249.004C226.191 250.603 227.331 252.807 227.638 255.208L236.448 325.181C236.625 326.588 236.509 328.019 236.11 329.377C235.71 330.734 235.035 331.988 234.129 333.055C233.224 334.121 232.109 334.975 230.859 335.561C229.608 336.146 228.252 336.449 226.88 336.449V336.447ZM84.8922 247.926C83.714 247.926 82.5494 248.186 81.4761 248.689C80.4028 249.191 79.4455 249.925 78.6681 250.841C77.8907 251.756 77.3111 252.833 76.968 253.999C76.6249 255.165 76.5261 256.393 76.6783 257.601L85.487 327.575C85.7513 329.636 86.7295 331.528 88.2401 332.901C89.7507 334.273 91.6911 335.032 93.7015 335.036H226.88C228.058 335.036 229.223 334.776 230.297 334.274C231.37 333.771 232.327 333.037 233.105 332.121C233.882 331.205 234.462 330.129 234.805 328.962C235.148 327.796 235.247 326.568 235.094 325.359L226.285 255.386C226.021 253.325 225.042 251.433 223.532 250.061C222.021 248.689 220.081 247.931 218.07 247.926H84.8922Z" fill="#292A2E"/>
<path d="M234.411 335.742H101.233C99.0552 335.742 96.9522 334.922 95.3161 333.436C93.68 331.95 92.6226 329.899 92.3414 327.666L83.532 257.692C83.3675 256.384 83.4746 255.055 83.8461 253.793C84.2177 252.531 84.8451 251.366 85.6866 250.375C86.5281 249.384 87.5642 248.59 88.7259 248.046C89.8876 247.502 91.148 247.221 92.4232 247.221H225.602C227.779 247.221 229.882 248.04 231.518 249.526C233.154 251.012 234.211 253.064 234.493 255.297L243.302 325.271C243.467 326.579 243.359 327.908 242.988 329.169C242.616 330.431 241.989 331.596 241.148 332.587C240.306 333.579 239.27 334.373 238.108 334.916C236.947 335.46 235.686 335.742 234.411 335.742V335.742Z" fill="white"/>
<path d="M234.411 336.447H101.233C98.8912 336.442 96.6312 335.559 94.8718 333.961C93.1125 332.363 91.9732 330.159 91.6654 327.758L82.8561 257.784C82.6788 256.377 82.7939 254.947 83.1936 253.589C83.5933 252.231 84.2684 250.977 85.1739 249.911C86.0794 248.844 87.1944 247.99 88.4445 247.405C89.6946 246.819 91.051 246.517 92.4233 246.517H225.602C227.943 246.522 230.204 247.406 231.963 249.004C233.722 250.603 234.861 252.807 235.169 255.208L243.978 325.181C244.155 326.588 244.04 328.019 243.641 329.377C243.241 330.734 242.566 331.988 241.66 333.055C240.755 334.121 239.64 334.976 238.39 335.561C237.14 336.146 235.783 336.449 234.411 336.449V336.447ZM92.4233 247.926C91.2451 247.926 90.0804 248.186 89.0071 248.689C87.9338 249.191 86.9764 249.925 86.199 250.841C85.4215 251.756 84.8419 252.833 84.4987 253.999C84.1554 255.165 84.0566 256.393 84.2087 257.601L93.018 327.575C93.2821 329.636 94.2602 331.529 95.7708 332.901C97.2815 334.273 99.2221 335.032 101.233 335.036H234.411C235.589 335.037 236.754 334.777 237.828 334.274C238.901 333.771 239.859 333.038 240.636 332.122C241.414 331.206 241.994 330.129 242.337 328.963C242.68 327.797 242.779 326.568 242.626 325.359L233.817 255.386C233.553 253.325 232.575 251.432 231.064 250.06C229.553 248.688 227.613 247.929 225.602 247.924L92.4233 247.926Z" fill="#292A2E"/>
<path d="M422.238 609.844C422.238 609.844 425.895 629.453 443.645 630.545C461.395 631.638 457.546 646.264 457.546 646.264H389.715V611.211L422.238 609.844Z" fill="black"/>
<path d="M293.192 597.463C293.192 597.463 288.106 616.728 303.567 625.813C319.028 634.898 309.332 646.264 309.332 646.264L248.467 615.292L263.426 583.838L293.192 597.463Z" fill="black"/>
<path d="M238.574 140.548C238.574 140.548 247.423 133.639 249.616 117.735C251.314 105.42 240.332 113.398 240.332 113.398C240.332 113.398 241.471 104.52 235.216 105.4C228.962 106.281 225.462 115.609 225.462 115.609" fill="#0C0C0C"/>
<path d="M202.892 106.439C202.892 106.439 171.86 109.881 183.078 153.375L185.824 153.565L191.398 153.951" fill="#0C0C0C"/>
<path d="M233.376 198.798C233.24 198.78 231.725 224.761 202.541 222.498C182.337 220.933 175.134 198.761 174.67 198.761C176.849 198.282 179.541 197.555 180.611 197.306C182.942 196.746 185.054 195.465 186.664 193.634C188.275 191.802 189.308 189.507 189.627 187.053C190.218 183.37 189.218 164.527 189.524 160.801L220.537 167.961C220.104 175.831 217.071 194.077 227.699 197.306C229.47 197.84 231.376 198.331 233.376 198.798Z" fill="#E98862"/>
<path opacity="0.52" d="M220.973 189.849C220.487 188.23 220.174 186.56 220.04 184.871C219.699 181.015 219.768 177.132 220.244 173.291C213.941 172.411 208.002 169.72 203.104 165.523C202.528 167.723 199.361 177.335 200.239 179.426C201.893 183.378 209.681 189.849 220.973 189.849Z" fill="#0C0C0C"/>
<path d="M214.572 184.706C202.336 183.571 187.692 175.576 187.482 158.397L187.291 142.897C187.08 125.718 195.631 111.678 211.269 111.472C226.906 111.266 238.766 125.039 238.977 142.217L239.061 149.079C239.051 151.436 238.885 153.789 238.564 156.122C237.762 162.296 236.518 171.681 232.468 178.031C228.643 184.024 222.388 185.432 214.572 184.706Z" fill="#E98862"/>
<path d="M220.248 169.004C222.773 169.123 225.29 168.626 227.595 167.553C227.642 167.532 227.686 167.501 227.722 167.463C227.758 167.425 227.787 167.38 227.806 167.33C227.825 167.28 227.835 167.227 227.834 167.173C227.834 167.12 227.823 167.067 227.803 167.018C227.782 166.968 227.753 166.924 227.716 166.886C227.679 166.849 227.635 166.819 227.587 166.799C227.539 166.779 227.487 166.769 227.436 166.77C227.384 166.77 227.333 166.781 227.285 166.802C222.319 168.993 217.81 168.672 214.245 165.875C214.173 165.816 214.098 165.761 214.021 165.71C213.931 165.667 213.829 165.661 213.735 165.692C213.641 165.722 213.562 165.789 213.512 165.877C213.463 165.966 213.448 166.07 213.469 166.17C213.491 166.27 213.548 166.357 213.629 166.416C213.657 166.434 213.703 166.471 213.765 166.523C215.639 167.999 217.897 168.863 220.248 169.004Z" fill="#0C0C0C"/>
<path d="M220.13 172.874C220.587 172.904 221.044 172.892 221.499 172.84C221.603 172.829 221.698 172.775 221.764 172.691C221.83 172.607 221.86 172.499 221.849 172.392C221.838 172.284 221.786 172.185 221.705 172.117C221.624 172.049 221.52 172.018 221.416 172.029C218.682 172.33 217.378 171.034 217.323 170.978C217.248 170.905 217.149 170.865 217.046 170.867C216.943 170.868 216.845 170.911 216.772 170.986C216.7 171.061 216.658 171.163 216.657 171.269C216.655 171.375 216.694 171.478 216.764 171.556C217.706 172.384 218.895 172.85 220.13 172.874V172.874Z" fill="#0C0C0C"/>
<path d="M233.813 152.382C234.877 152.382 235.739 151.49 235.739 150.39C235.739 149.289 234.877 148.397 233.813 148.397C232.749 148.397 231.886 149.289 231.886 150.39C231.886 151.49 232.749 152.382 233.813 152.382Z" fill="#0C0C0C"/>
<path d="M214.995 151.161C216.059 151.161 216.921 150.269 216.921 149.168C216.921 148.068 216.059 147.176 214.995 147.176C213.931 147.176 213.069 148.068 213.069 149.168C213.069 150.269 213.931 151.161 214.995 151.161Z" fill="#0C0C0C"/>
<path d="M188.517 163.618C183.765 163.68 179.848 158.472 179.786 153.557C179.724 148.641 183.545 145.881 188.297 145.818L190.786 149.079L192.601 163.564L188.517 163.618Z" fill="#E98862"/>
<path d="M193.242 155.719C193.242 155.719 194.847 131.412 201.973 129.911C206.719 128.912 218.228 135.874 228.888 133.771C233.552 132.854 237.98 134.046 238.43 136.324C238.608 137.226 241.514 124.259 234.21 114.422C228.395 106.59 209.366 104.375 200.709 106.943C176.738 114.056 187.316 146.888 187.316 146.888L188.385 155.268L193.242 155.719Z" fill="#0C0C0C"/>
<path d="M223.118 163.268C223.128 163.268 223.139 163.268 223.149 163.268C224.68 163.252 227.247 163.048 227.237 161.863C227.226 160.881 224.525 150.31 224.216 149.108C224.182 149.014 224.116 148.937 224.03 148.891C223.944 148.845 223.844 148.834 223.751 148.86C223.657 148.886 223.576 148.947 223.524 149.031C223.471 149.115 223.45 149.216 223.466 149.315C224.666 153.997 226.453 161.204 226.46 161.873C226.312 162.155 224.731 162.445 223.145 162.462C223.045 162.464 222.949 162.506 222.878 162.579C222.807 162.652 222.766 162.75 222.763 162.854C222.76 162.957 222.796 163.058 222.862 163.135C222.929 163.212 223.022 163.259 223.121 163.268H223.118Z" fill="#0C0C0C"/>
<path d="M228.346 139.587C229.955 139.129 231.654 139.129 233.264 139.587C234.054 139.807 234.809 140.148 235.501 140.6C236.186 141.042 236.813 141.572 237.369 142.177C237.476 142.284 237.538 142.43 237.542 142.583C237.546 142.737 237.491 142.886 237.391 142.998C237.29 143.111 237.15 143.178 237.002 143.185C236.854 143.193 236.709 143.14 236.598 143.038L236.563 143.007C236.048 142.514 235.475 142.09 234.858 141.745C234.252 141.402 233.6 141.156 232.923 141.015C231.59 140.725 230.207 140.805 228.914 141.246L228.859 141.266C228.646 141.344 228.411 141.331 228.207 141.23C228.003 141.129 227.846 140.949 227.77 140.728C227.695 140.507 227.707 140.265 227.805 140.053C227.902 139.842 228.077 139.68 228.29 139.602L228.346 139.587Z" fill="#0C0C0C"/>
<path d="M216.949 140.587C215.725 139.971 214.364 139.701 213.007 139.804C212.317 139.851 211.639 140.005 210.994 140.261C210.339 140.519 209.718 140.86 209.145 141.277L209.108 141.303C208.985 141.384 208.836 141.414 208.693 141.385C208.549 141.356 208.422 141.271 208.337 141.148C208.253 141.024 208.218 140.872 208.239 140.723C208.26 140.573 208.336 140.438 208.451 140.345C209.081 139.822 209.771 139.383 210.507 139.038C211.251 138.686 212.043 138.452 212.854 138.342C213.667 138.224 214.492 138.222 215.306 138.336C216.141 138.443 216.957 138.673 217.729 139.018C217.937 139.112 218.101 139.287 218.184 139.505C218.267 139.724 218.263 139.967 218.173 140.182C218.082 140.398 217.913 140.567 217.702 140.653C217.491 140.739 217.255 140.735 217.047 140.641C217.032 140.634 217.015 140.626 217 140.618L216.949 140.587Z" fill="#0C0C0C"/>
<path d="M226.056 122.853C229.573 122.093 231.548 117.136 230.466 111.781C229.384 106.426 225.656 102.701 222.138 103.461C218.621 104.221 216.646 109.178 217.728 114.533C218.81 119.888 222.538 123.613 226.056 122.853Z" fill="#0C0C0C"/>
<path d="M255.495 592.022L306.822 424.538H213.783C195.094 424.538 187.303 408.145 187.303 388.815C187.303 369.485 205.676 352.54 224.364 352.54H349.932C361.331 352.54 374.112 359.75 380.368 369.606C386.625 379.463 384.933 394.735 380.4 405.554L298.207 612.037" fill="#262626"/>
<path opacity="0.8" d="M255.495 592.022L306.822 424.538H213.783C195.094 424.538 187.303 408.145 187.303 388.815C187.303 369.485 205.676 352.54 224.364 352.54H349.932C361.331 352.54 374.112 359.75 380.368 369.606C386.625 379.463 384.933 394.735 380.4 405.554L298.207 612.037" fill="#0A0A0A"/>
<path d="M385.814 628.054L299.991 424.538L187.302 424.53C160.897 422.389 148.804 407.421 149.188 388.095C149.568 369.014 158.908 350.168 177.273 350.168H329.158C342.745 350.457 353.435 365.988 358.476 379.041L429.823 615.595" fill="#262626"/>
<path d="M141.503 350.401C141.503 350.401 136.498 384.158 144.431 402.926C154.334 426.356 191.46 424.531 191.46 424.531L189.368 350.169L141.503 350.401Z" fill="#262626"/>
<path d="M361.705 349.737L282.103 332.677C278.786 331.966 275.696 330.401 273.119 328.127C270.542 325.853 268.561 322.944 267.359 319.668L236.051 234.333C235.097 231.772 234.643 229.041 234.713 226.298C234.783 223.554 235.376 220.852 236.458 218.347C237.541 215.841 239.091 213.582 241.021 211.698C242.95 209.814 245.22 208.343 247.701 207.369C250.182 206.396 252.824 205.938 255.476 206.024C258.128 206.11 260.737 206.736 263.154 207.868C265.571 209 267.748 210.615 269.56 212.619C271.372 214.624 272.783 216.979 273.713 219.549L301.101 294.194L369.88 308.935C369.88 308.935 363.085 350.033 361.705 349.737Z" fill="#1F41BB"/>
<path d="M269.637 256.007C268.719 267.177 262.202 336.867 261.316 350.626H141.555C140.867 338.216 137.777 283.954 135.168 259.684C132.677 236.528 129.185 225.99 132.054 218.794C137.114 206.102 153.22 200.434 164.126 198.907C170.786 197.974 180.802 197.306 180.802 197.306C180.802 197.306 181.651 215.052 201.874 216.039C229.403 217.38 227.565 197.306 227.701 197.306C232.161 197.306 256.437 200.66 262.507 204.752C271.081 210.533 273.614 218.409 273.714 225.647C273.83 233.979 270.68 243.335 269.637 256.007Z" fill="#1F41BB"/>
<path d="M264.931 312.947H264.902C264.858 312.943 264.814 312.93 264.774 312.909C264.734 312.888 264.699 312.859 264.67 312.824C264.641 312.788 264.619 312.747 264.606 312.703C264.592 312.659 264.587 312.612 264.591 312.566L267.7 273.936C267.702 273.889 267.714 273.844 267.734 273.802C267.754 273.76 267.782 273.723 267.816 273.693C267.851 273.663 267.891 273.64 267.934 273.627C267.977 273.613 268.022 273.609 268.067 273.614C268.112 273.617 268.155 273.63 268.195 273.652C268.235 273.673 268.27 273.702 268.299 273.737C268.328 273.773 268.35 273.814 268.364 273.858C268.378 273.902 268.383 273.948 268.379 273.995L265.27 312.625C265.263 312.713 265.224 312.794 265.161 312.854C265.098 312.914 265.016 312.947 264.931 312.947Z" fill="#0C0C0C"/>
<path d="M284.185 342.964L310.462 259.414C310.924 257.946 311.823 256.667 313.031 255.759C314.238 254.852 315.693 254.363 317.185 254.363H424.243C425.359 254.363 426.459 254.637 427.453 255.161C428.447 255.685 429.308 256.445 429.963 257.379C430.619 258.313 431.052 259.394 431.226 260.534C431.4 261.674 431.311 262.841 430.966 263.939L404.689 347.489C404.227 348.957 403.328 350.236 402.12 351.144C400.912 352.051 399.458 352.54 397.965 352.54H290.908C289.792 352.54 288.692 352.267 287.698 351.743C286.703 351.218 285.843 350.458 285.187 349.524C284.531 348.59 284.099 347.509 283.924 346.369C283.75 345.229 283.839 344.062 284.185 342.964V342.964Z" fill="#292A2E"/>
<path opacity="0.2" d="M284.185 342.964L310.462 259.414C310.924 257.946 311.823 256.667 313.031 255.759C314.238 254.852 315.693 254.363 317.185 254.363H424.243C425.359 254.363 426.459 254.637 427.453 255.161C428.447 255.685 429.308 256.445 429.963 257.379C430.619 258.313 431.052 259.394 431.226 260.534C431.4 261.674 431.311 262.841 430.966 263.939L404.689 347.489C404.227 348.957 403.328 350.236 402.12 351.144C400.912 352.051 399.458 352.54 397.965 352.54H290.908C289.792 352.54 288.692 352.267 287.698 351.743C286.703 351.218 285.843 350.458 285.187 349.524C284.531 348.59 284.099 347.509 283.924 346.369C283.75 345.229 283.839 344.062 284.185 342.964V342.964Z" fill="white"/>
<path d="M305.62 345.765H233.956C232.17 345.765 230.723 347.263 230.723 349.11V349.196C230.723 351.043 232.17 352.54 233.956 352.54H305.62C307.406 352.54 308.853 351.043 308.853 349.196V349.11C308.853 347.263 307.406 345.765 305.62 345.765Z" fill="#292A2E"/>
<path opacity="0.2" d="M305.62 345.765H233.956C232.17 345.765 230.723 347.263 230.723 349.11V349.196C230.723 351.043 232.17 352.54 233.956 352.54H305.62C307.406 352.54 308.853 351.043 308.853 349.196V349.11C308.853 347.263 307.406 345.765 305.62 345.765Z" fill="white"/>
<path d="M357.575 319.141C363.776 319.141 368.803 313.941 368.803 307.527C368.803 301.113 363.776 295.914 357.575 295.914C351.374 295.914 346.347 301.113 346.347 307.527C346.347 313.941 351.374 319.141 357.575 319.141Z" fill="white"/>
<path d="M270.723 240.433H242.255V276.544H270.723V240.433Z" fill="white"/>
<path d="M242.255 270.546C239.949 270.546 237.695 269.839 235.778 268.514C233.861 267.189 232.367 265.306 231.485 263.102C230.602 260.899 230.371 258.475 230.821 256.135C231.271 253.796 232.381 251.648 234.012 249.962C235.642 248.275 237.719 247.127 239.981 246.662C242.242 246.196 244.586 246.435 246.716 247.348C248.847 248.26 250.667 249.806 251.948 251.789C253.229 253.772 253.913 256.103 253.913 258.488C253.909 261.685 252.68 264.75 250.495 267.01C248.309 269.271 245.346 270.542 242.255 270.546V270.546ZM242.255 251.369C240.894 251.369 239.563 251.787 238.431 252.569C237.299 253.351 236.417 254.463 235.896 255.764C235.375 257.065 235.239 258.497 235.504 259.878C235.77 261.259 236.426 262.527 237.388 263.523C238.351 264.519 239.577 265.197 240.913 265.471C242.248 265.746 243.632 265.605 244.89 265.066C246.147 264.527 247.222 263.614 247.979 262.443C248.735 261.273 249.138 259.896 249.138 258.488C249.136 256.6 248.411 254.791 247.12 253.456C245.83 252.121 244.08 251.371 242.255 251.369Z" fill="white"/>
<path d="M243.897 263.838C243.637 263.14 243.149 262.56 242.517 262.197C241.885 261.835 241.15 261.714 240.441 261.856C240.454 261.822 240.461 261.786 240.462 261.75L241.417 261.308C242.086 261.014 242.636 260.489 242.974 259.824C243.312 259.158 243.418 258.392 243.273 257.655C243.172 257.195 242.975 256.764 242.694 256.393C242.413 256.021 242.056 255.719 241.648 255.507C241.241 255.296 240.793 255.181 240.337 255.17C239.881 255.159 239.429 255.253 239.012 255.445L236.76 256.487C236.76 256.478 236.76 256.469 236.755 256.459C236.746 256.441 236.735 256.423 236.723 256.407C237.277 255.975 237.674 255.36 237.848 254.664C238.022 253.969 237.963 253.232 237.681 252.576C237.055 250.825 234.839 250.685 233.373 251.362L227.483 253.819L229.261 251.955C229.818 251.347 230.131 250.543 230.137 249.705C230.143 248.868 229.841 248.059 229.292 247.443C228.998 247.135 228.647 246.893 228.259 246.73C227.871 246.568 227.456 246.488 227.038 246.498C226.619 246.507 226.207 246.604 225.827 246.783C225.446 246.962 225.105 247.22 224.823 247.54L203.883 271.195L211.045 278.329C213.269 280.545 216.082 282.024 219.123 282.575C222.165 283.127 225.296 282.726 228.116 281.424L240.88 275.506C241.549 275.212 242.099 274.687 242.437 274.022C242.776 273.356 242.881 272.59 242.736 271.853C242.591 271.192 242.246 270.596 241.75 270.152C241.255 269.707 240.635 269.438 239.982 269.384C239.989 269.347 239.989 269.31 239.982 269.273C239.975 269.236 239.961 269.201 239.941 269.17C239.921 269.139 239.895 269.113 239.865 269.092C239.835 269.071 239.801 269.057 239.765 269.05L242.122 267.962C242.868 267.636 243.467 267.028 243.796 266.262C244.126 265.497 244.162 264.63 243.897 263.838V263.838Z" fill="#E98862"/>
<path opacity="0.2" d="M232.502 258.489C232.434 258.489 232.369 258.465 232.317 258.42C232.264 258.376 232.229 258.314 232.216 258.245C232.204 258.177 232.215 258.106 232.247 258.045C232.28 257.984 232.332 257.936 232.395 257.911L236.379 256.288C236.414 256.274 236.452 256.267 236.49 256.267C236.528 256.268 236.565 256.276 236.6 256.292C236.635 256.308 236.666 256.33 236.693 256.359C236.719 256.387 236.74 256.42 236.754 256.457C236.768 256.493 236.775 256.532 236.774 256.572C236.773 256.611 236.765 256.65 236.75 256.686C236.735 256.722 236.713 256.754 236.686 256.782C236.658 256.809 236.626 256.83 236.591 256.845L232.607 258.467C232.574 258.481 232.538 258.488 232.502 258.489V258.489Z" fill="#0C0C0C"/>
<path opacity="0.2" d="M234.725 264.315C234.658 264.315 234.593 264.29 234.541 264.246C234.489 264.202 234.454 264.141 234.441 264.072C234.429 264.004 234.439 263.934 234.471 263.873C234.503 263.812 234.555 263.764 234.617 263.738L240.066 261.472C240.136 261.446 240.213 261.45 240.281 261.481C240.348 261.513 240.402 261.571 240.43 261.642C240.457 261.714 240.457 261.794 240.43 261.865C240.402 261.936 240.349 261.994 240.281 262.026L234.833 264.294C234.799 264.308 234.762 264.315 234.725 264.315V264.315Z" fill="#0C0C0C"/>
<path opacity="0.2" d="M237.101 270.641C237.033 270.641 236.968 270.616 236.916 270.571C236.864 270.526 236.829 270.464 236.816 270.395C236.804 270.326 236.816 270.255 236.85 270.194C236.883 270.133 236.936 270.086 236.999 270.061L239.597 269.053C239.669 269.025 239.748 269.028 239.818 269.06C239.888 269.093 239.943 269.153 239.97 269.227C239.997 269.302 239.995 269.384 239.963 269.456C239.931 269.529 239.873 269.585 239.802 269.613L237.204 270.622C237.171 270.634 237.136 270.641 237.101 270.641V270.641Z" fill="#0C0C0C"/>
<path d="M249.954 217.463C249.828 217.463 249.705 217.427 249.598 217.36C249.491 217.292 249.403 217.195 249.346 217.079C247.793 213.947 245.861 210.049 246.079 205.962C246.252 202.711 247.726 199.824 249.148 197.035C250.068 195.349 250.852 193.588 251.491 191.769C252.272 189.259 252.469 186.594 252.066 183.99C251.663 181.387 250.672 178.918 249.172 176.786C249.116 176.712 249.075 176.627 249.051 176.536C249.027 176.445 249.021 176.35 249.034 176.256C249.046 176.163 249.076 176.073 249.123 175.992C249.169 175.911 249.231 175.84 249.304 175.784C249.378 175.728 249.461 175.688 249.55 175.666C249.638 175.644 249.73 175.64 249.82 175.655C249.91 175.671 249.996 175.704 250.073 175.755C250.15 175.805 250.217 175.871 250.269 175.948C251.898 178.262 252.975 180.941 253.414 183.767C253.852 186.593 253.64 189.486 252.793 192.211C252.13 194.105 251.317 195.939 250.36 197.694C248.942 200.473 247.602 203.097 247.445 206.04C247.247 209.745 249.01 213.3 250.564 216.436C250.618 216.543 250.643 216.663 250.639 216.784C250.635 216.905 250.6 217.022 250.54 217.125C250.479 217.228 250.393 217.313 250.291 217.373C250.19 217.432 250.075 217.463 249.958 217.463H249.954Z" fill="white"/>
<path d="M260.906 228.475C260.755 228.475 260.608 228.423 260.489 228.327C260.369 228.231 260.284 228.097 260.246 227.946C260.208 227.794 260.22 227.634 260.28 227.491C260.34 227.347 260.444 227.228 260.576 227.152C263.104 225.71 263.387 221.696 262.2 218.649C261.611 217.249 260.921 215.895 260.138 214.601C259.09 212.923 258.238 211.124 257.6 209.239C256.949 206.941 256.908 204.504 257.482 202.184C258.056 199.864 259.224 197.747 260.862 196.055C260.992 195.927 261.166 195.857 261.346 195.861C261.526 195.864 261.697 195.941 261.822 196.075C261.947 196.208 262.017 196.387 262.015 196.573C262.013 196.759 261.94 196.937 261.812 197.068C260.351 198.577 259.31 200.464 258.798 202.533C258.287 204.602 258.323 206.775 258.904 208.824C259.51 210.602 260.318 212.3 261.311 213.881C262.132 215.236 262.851 216.653 263.464 218.121C264.855 221.689 264.545 226.499 261.235 228.387C261.134 228.444 261.021 228.475 260.906 228.475Z" fill="white"/>
<path d="M227.893 289.974L127.453 332.969C123.832 334.502 119.857 334.911 116.015 334.146C112.173 333.381 108.629 331.474 105.817 328.66C103.005 325.846 101.046 322.245 100.18 318.298C99.3146 314.351 99.579 310.229 100.941 306.435L130.898 221.804C134.771 211.018 145.681 204.816 156.11 208.823C161.117 210.746 165.181 214.649 167.407 219.672C169.632 224.695 169.838 230.426 167.978 235.606L154.314 275.662L213.18 252.188" fill="#1F41BB"/>
<path d="M227.648 290.358C227.594 290.357 227.542 290.341 227.498 290.31C227.453 290.279 227.419 290.235 227.398 290.184L212.784 252.65L154.116 276.07C154.067 276.089 154.014 276.093 153.963 276.082C153.913 276.071 153.866 276.045 153.829 276.007C153.792 275.969 153.767 275.92 153.757 275.867C153.746 275.815 153.75 275.76 153.769 275.71L162.841 251.626C162.867 251.557 162.918 251.502 162.984 251.473C163.049 251.443 163.123 251.442 163.189 251.468C163.255 251.495 163.309 251.548 163.337 251.615C163.366 251.683 163.367 251.759 163.341 251.828L154.49 275.324L212.838 252.032C212.904 252.006 212.977 252.008 213.042 252.037C213.106 252.066 213.157 252.12 213.184 252.188L227.897 289.976C227.922 290.045 227.921 290.121 227.893 290.188C227.866 290.256 227.814 290.31 227.748 290.338C227.716 290.351 227.682 290.358 227.648 290.358V290.358Z" fill="#0C0C0C"/>
<path d="M135.69 283.522C135.628 283.523 135.566 283.5 135.518 283.459C135.469 283.418 135.436 283.36 135.425 283.296C135.413 283.232 135.423 283.166 135.454 283.11C135.485 283.053 135.533 283.009 135.592 282.986L153.967 275.507C154 275.493 154.036 275.486 154.071 275.486C154.107 275.487 154.142 275.494 154.175 275.509C154.208 275.523 154.237 275.544 154.262 275.57C154.287 275.597 154.306 275.628 154.32 275.662C154.333 275.697 154.339 275.733 154.338 275.77C154.337 275.807 154.33 275.843 154.315 275.877C154.301 275.911 154.28 275.941 154.254 275.966C154.228 275.992 154.198 276.011 154.164 276.024L135.789 283.503C135.757 283.515 135.724 283.522 135.69 283.522V283.522Z" fill="#0C0C0C"/>
<path d="M139.97 327.948C139.908 327.948 139.847 327.926 139.799 327.885C139.751 327.845 139.718 327.788 139.706 327.725C139.694 327.662 139.703 327.596 139.733 327.539C139.762 327.483 139.81 327.438 139.868 327.414L227.548 289.824C227.581 289.81 227.616 289.803 227.651 289.803C227.686 289.803 227.721 289.81 227.754 289.824C227.786 289.838 227.816 289.858 227.841 289.884C227.865 289.91 227.885 289.941 227.899 289.974C227.912 290.008 227.919 290.044 227.919 290.081C227.919 290.117 227.912 290.153 227.898 290.187C227.885 290.22 227.865 290.251 227.84 290.277C227.815 290.302 227.785 290.323 227.753 290.337L140.072 327.927C140.04 327.941 140.005 327.948 139.97 327.948Z" fill="#0C0C0C"/>
<path d="M585.117 554.183C584.936 554.182 584.763 554.108 584.635 553.976C583.674 552.982 582.107 534.744 577.888 480.444C576.161 458.225 574.53 437.239 573.34 424.485C573.255 423.575 572.914 423.468 572.802 423.434C571.173 422.925 566.218 426.966 563.452 430.504C563.338 430.65 563.173 430.743 562.993 430.763C562.814 430.782 562.633 430.727 562.493 430.61C562.352 430.492 562.262 430.322 562.243 430.135C562.224 429.949 562.277 429.763 562.391 429.617C564.22 427.278 570.182 421.144 573.194 422.082C573.802 422.271 574.558 422.817 574.699 424.349C575.889 437.114 577.52 458.106 579.247 480.33C581.811 513.328 584.717 550.711 585.671 553.065C585.744 553.17 585.788 553.295 585.797 553.424C585.807 553.554 585.781 553.683 585.724 553.799C585.667 553.914 585.58 554.011 585.473 554.079C585.366 554.147 585.242 554.183 585.117 554.183V554.183Z" fill="#494949"/>
<path d="M571.588 447.888C582.907 438.504 586.658 423.897 579.967 415.263C573.276 406.629 558.676 407.238 547.358 416.622C536.039 426.006 532.288 440.613 538.979 449.247C545.67 457.881 560.269 457.272 571.588 447.888Z" fill="#1F41BB"/>
<path opacity="0.2" d="M571.588 447.888C582.907 438.504 586.658 423.897 579.967 415.263C573.276 406.629 558.676 407.238 547.358 416.622C536.039 426.006 532.288 440.613 538.979 449.247C545.67 457.881 560.269 457.272 571.588 447.888Z" fill="white"/>
<path d="M542.151 451.444C542.087 451.444 542.023 451.424 541.968 451.388C541.914 451.352 541.87 451.301 541.843 451.24C541.815 451.18 541.805 451.112 541.813 451.046C541.822 450.979 541.848 450.917 541.889 450.865L574.147 410.63C574.175 410.593 574.21 410.563 574.25 410.54C574.29 410.518 574.333 410.504 574.378 410.499C574.424 410.495 574.469 410.499 574.512 410.513C574.556 410.527 574.596 410.549 574.631 410.579C574.666 410.609 574.694 410.646 574.715 410.687C574.736 410.729 574.749 410.774 574.753 410.821C574.756 410.868 574.751 410.915 574.737 410.959C574.723 411.004 574.701 411.045 574.671 411.081L542.414 451.316C542.382 451.356 542.342 451.388 542.296 451.41C542.251 451.432 542.202 451.444 542.151 451.444Z" fill="white"/>
<path d="M592.153 545.557C592.044 545.557 591.937 545.53 591.84 545.478C591.743 545.427 591.659 545.352 591.596 545.26C591.533 545.168 591.492 545.062 591.477 544.951C591.462 544.839 591.472 544.726 591.508 544.619L603.625 508.576C603.982 507.517 604.59 506.567 605.393 505.814C606.197 505.061 607.17 504.529 608.224 504.266C609.278 504.003 610.379 504.017 611.426 504.308C612.473 504.599 613.433 505.158 614.217 505.932L620.623 512.262C620.754 512.391 620.83 512.569 620.834 512.756C620.838 512.943 620.77 513.124 620.645 513.259C620.52 513.395 620.348 513.473 620.167 513.477C619.986 513.482 619.811 513.411 619.68 513.282L613.275 506.953C612.655 506.342 611.898 505.901 611.071 505.672C610.245 505.442 609.376 505.43 608.544 505.638C607.712 505.846 606.944 506.266 606.31 506.86C605.675 507.454 605.195 508.204 604.914 509.04L592.797 545.083C592.75 545.221 592.663 545.341 592.548 545.426C592.432 545.511 592.294 545.557 592.153 545.557Z" fill="#494949"/>
<path d="M638.521 532.217C646.909 525.35 646.411 510.245 637.408 498.481C628.405 486.716 614.306 482.746 605.918 489.614C597.53 496.481 598.028 511.586 607.031 523.35C616.034 535.115 630.133 539.085 638.521 532.217Z" fill="#1F41BB"/>
<path d="M579.612 551.884C579.459 551.884 579.31 551.83 579.19 551.732C579.07 551.634 578.985 551.496 578.949 551.342L558.616 463.403C558.477 462.803 558.181 462.255 557.76 461.819C557.339 461.382 556.81 461.074 556.231 460.928C555.652 460.782 555.046 460.804 554.478 460.992C553.91 461.18 553.404 461.526 553.014 461.992L546.746 469.484C546.687 469.554 546.616 469.611 546.536 469.653C546.456 469.694 546.369 469.719 546.279 469.726C546.19 469.733 546.1 469.721 546.015 469.692C545.93 469.663 545.851 469.616 545.784 469.556C545.716 469.495 545.66 469.421 545.62 469.338C545.58 469.256 545.556 469.165 545.549 469.073C545.543 468.98 545.554 468.888 545.582 468.8C545.611 468.712 545.655 468.63 545.714 468.56L551.982 461.068C552.537 460.407 553.257 459.916 554.063 459.65C554.87 459.384 555.732 459.353 556.554 459.561C557.376 459.769 558.127 460.207 558.725 460.827C559.322 461.448 559.742 462.226 559.94 463.078L580.273 551.017C580.315 551.199 580.286 551.391 580.191 551.55C580.096 551.709 579.944 551.823 579.769 551.867C579.717 551.879 579.665 551.885 579.612 551.884V551.884Z" fill="#494949"/>
<path d="M572.113 489.019C574.584 474.234 568.043 460.72 557.501 458.835C546.96 456.949 536.41 467.406 533.939 482.191C531.467 496.976 538.008 510.49 548.55 512.375C559.091 514.261 569.641 503.804 572.113 489.019Z" fill="#1F41BB"/>
<path d="M585.118 554.182C585.09 554.182 585.062 554.18 585.034 554.177C584.854 554.154 584.691 554.058 584.579 553.911C584.468 553.764 584.418 553.577 584.44 553.391L597.425 444.347C597.566 443.158 598.036 442.037 598.778 441.119C599.521 440.2 600.504 439.523 601.61 439.169C602.716 438.815 603.897 438.799 605.011 439.123C606.126 439.447 607.126 440.097 607.892 440.995L622.733 458.381C622.853 458.521 622.914 458.705 622.902 458.892C622.891 459.079 622.808 459.253 622.673 459.377C622.537 459.501 622.359 459.564 622.179 459.552C621.998 459.541 621.829 459.455 621.71 459.315L606.868 441.928C606.277 441.234 605.503 440.732 604.642 440.481C603.78 440.231 602.867 440.244 602.012 440.518C601.157 440.792 600.397 441.316 599.824 442.026C599.25 442.737 598.887 443.604 598.779 444.522L585.792 553.563C585.771 553.733 585.692 553.89 585.568 554.004C585.444 554.118 585.284 554.181 585.118 554.182Z" fill="#494949"/>
<path d="M637.951 468.042C643.13 458.359 637.037 444.622 624.343 437.36C611.65 430.097 597.162 432.059 591.984 441.742C586.806 451.425 592.898 465.161 605.592 472.424C618.285 479.687 632.773 477.725 637.951 468.042Z" fill="#1F41BB"/>
<path opacity="0.2" d="M638.521 532.217C646.909 525.35 646.411 510.245 637.408 498.481C628.405 486.716 614.306 482.746 605.918 489.614C597.53 496.481 598.028 511.586 607.031 523.35C616.034 535.115 630.133 539.085 638.521 532.217Z" fill="white"/>
<path opacity="0.5" d="M572.113 489.019C574.584 474.234 568.043 460.72 557.501 458.835C546.96 456.949 536.41 467.406 533.939 482.191C531.467 496.976 538.008 510.49 548.55 512.375C559.091 514.261 569.641 503.804 572.113 489.019Z" fill="white"/>
<path opacity="0.5" d="M637.951 468.042C643.13 458.359 637.037 444.622 624.343 437.36C611.65 430.097 597.162 432.059 591.984 441.742C586.806 451.425 592.898 465.161 605.592 472.424C618.285 479.687 632.773 477.725 637.951 468.042Z" fill="white"/>
<path d="M601.725 646.706H568.509L563.005 536.782H607.229L601.725 646.706Z" fill="#292A2E"/>
<path opacity="0.3" d="M601.725 646.706H568.509L563.005 536.782H607.229L601.725 646.706Z" fill="white"/>
<path d="M638.521 532.566C638.47 532.566 638.419 532.554 638.372 532.531C638.326 532.508 638.285 532.474 638.253 532.433L605.649 489.828C605.593 489.755 605.567 489.661 605.577 489.568C605.588 489.476 605.633 489.391 605.704 489.333C605.775 489.274 605.866 489.248 605.955 489.259C606.045 489.269 606.127 489.317 606.184 489.39L638.788 531.994C638.828 532.046 638.853 532.108 638.86 532.174C638.867 532.24 638.856 532.307 638.828 532.366C638.8 532.426 638.757 532.477 638.702 532.512C638.648 532.547 638.585 532.566 638.521 532.566Z" fill="white"/>
<path d="M635.783 471.456C635.711 471.455 635.641 471.43 635.583 471.385L593.861 439.877C593.825 439.85 593.794 439.815 593.771 439.776C593.747 439.736 593.732 439.692 593.725 439.646C593.718 439.601 593.72 439.554 593.73 439.509C593.741 439.464 593.76 439.421 593.786 439.384C593.813 439.347 593.846 439.315 593.884 439.291C593.923 439.267 593.965 439.25 594.009 439.243C594.054 439.236 594.099 439.238 594.142 439.249C594.186 439.26 594.227 439.28 594.263 439.307L635.985 470.818C636.042 470.862 636.084 470.924 636.105 470.994C636.127 471.064 636.126 471.14 636.104 471.21C636.082 471.28 636.039 471.341 635.981 471.385C635.924 471.428 635.855 471.452 635.783 471.453V471.456Z" fill="white"/>
<path d="M546.854 511.916C546.825 511.916 546.795 511.912 546.766 511.904C546.679 511.88 546.605 511.821 546.559 511.74C546.514 511.659 546.502 511.563 546.525 511.472L559.807 460.002C559.818 459.957 559.837 459.914 559.864 459.877C559.892 459.839 559.926 459.807 559.965 459.784C560.004 459.76 560.047 459.744 560.092 459.738C560.136 459.732 560.182 459.735 560.226 459.747C560.27 459.759 560.31 459.78 560.346 459.808C560.382 459.837 560.412 459.873 560.434 459.913C560.457 459.954 560.471 459.999 560.476 460.046C560.482 460.092 560.478 460.139 560.466 460.184L547.185 511.654C547.165 511.729 547.122 511.796 547.063 511.843C547.003 511.891 546.93 511.916 546.854 511.916Z" fill="white"/>
</g>
<defs>
<clipPath id="clip0_1805_455">
<rect width="596" height="608" fill="white" transform="translate(48.5 76.5)"/>
</clipPath>
</defs>
</svg>
